<?xml version="1.0" standalone="no"?>
<!DOCTYPE svg PUBLIC "-//W3C//DTD SVG 20010904//EN"
 "http://www.w3.org/TR/2001/REC-SVG-20010904/DTD/svg10.dtd">
<svg version="1.0" xmlns="http://www.w3.org/2000/svg"
 width="700.000000pt" height="700.000000pt" viewBox="0 0 700.000000 700.000000"
 preserveAspectRatio="xMidYMid meet">
<metadata>
Created by potrace 1.11, written by Peter Selinger 2001-2013
</metadata>
<g transform="translate(0.000000,700.000000) scale(0.100000,-0.100000)"
fill="#000000" stroke="none">
<path d="M3521 5804 c-19 -24 -21 -40 -21 -163 0 -173 -8 -549 -15 -666 -2
-49 -7 -146 -10 -215 -19 -414 -59 -576 -151 -604 -47 -14 -88 77 -118 269 -3
17 -7 44 -10 60 -3 17 -8 62 -11 100 -4 39 -8 81 -10 95 -2 14 -7 88 -11 165
-4 77 -8 156 -9 175 -1 19 -3 52 -4 72 -2 67 -66 99 -121 61 -117 -80 -340
-293 -473 -451 -74 -89 -204 -266 -229 -313 -8 -13 -25 -42 -40 -65 -51 -79
-147 -270 -196 -390 -118 -288 -187 -572 -218 -894 -5 -52 -5 -331 0 -360 2
-14 7 -52 11 -85 21 -186 106 -437 205 -600 16 -27 33 -57 37 -65 4 -8 38 -57
76 -108 193 -259 449 -449 764 -566 273 -101 670 -113 975 -27 271 76 496 210
704 416 149 148 250 288 329 458 38 81 94 234 101 277 3 14 9 39 14 55 11 36
32 173 36 235 4 59 4 337 0 375 -2 17 -6 66 -10 110 -12 141 -32 271 -70 455
-3 14 -8 39 -12 55 -26 126 -118 408 -183 565 -18 41 -33 79 -34 84 -9 36
-181 360 -251 472 -93 148 -108 169 -230 327 -178 232 -410 465 -646 650 -97
77 -134 86 -169 41z m389 -2062 c165 -53 290 -192 324 -358 3 -10 9 -39 14
-64 6 -25 13 -62 16 -84 4 -21 8 -41 10 -45 2 -3 7 -24 10 -46 4 -22 8 -47 11
-55 2 -8 7 -37 10 -65 4 -27 8 -59 9 -70 17 -105 32 -240 41 -355 3 -41 8 -88
10 -105 11 -75 14 -456 4 -485 -18 -49 -60 -72 -134 -72 -68 0 -115 19 -135
56 -6 12 -12 51 -14 88 -1 37 -5 71 -9 74 -3 3 -263 6 -578 6 -472 0 -573 -2
-580 -13 -5 -8 -9 -43 -9 -78 0 -58 -3 -66 -34 -97 -23 -23 -44 -34 -65 -35
-103 -4 -119 -1 -153 30 l-33 29 0 189 c1 230 11 406 35 603 11 85 13 100 24
175 4 22 9 56 11 75 3 19 7 46 10 60 3 14 7 36 10 50 2 14 14 70 25 125 12 55
24 111 26 125 3 14 20 58 39 98 61 129 186 227 326 256 39 8 167 11 386 10
302 -2 333 -3 393 -22z"/>
<path d="M3146 3526 c-53 -20 -107 -65 -133 -113 -31 -55 -107 -420 -93 -443
6 -10 24 -10 135 5 76 10 146 17 210 20 88 6 408 6 455 1 19 -2 78 -7 130 -11
52 -4 97 -8 100 -10 3 -1 31 -6 63 -9 47 -6 58 -4 63 9 5 13 -14 148 -33 230
-2 11 -11 51 -18 88 -24 117 -59 171 -140 219 -40 23 -44 23 -370 25 -264 2
-338 0 -369 -11z"/>
<path d="M2887 2693 c-10 -12 -17 -48 -22 -113 -3 -52 -8 -103 -11 -112 -3 -9
3 -25 14 -36 16 -16 32 -19 103 -17 47 1 90 5 97 9 17 11 15 44 -9 106 -11 30
-25 69 -31 85 -14 38 -35 63 -70 81 -36 18 -52 18 -71 -3z"/>
<path d="M3186 2698 c-23 -13 -20 -35 15 -130 56 -148 71 -156 299 -153 91 1
173 3 182 4 38 3 76 51 112 144 42 109 44 125 13 136 -30 12 -600 11 -621 -1z"/>
<path d="M4053 2703 c-37 -7 -65 -47 -104 -144 -38 -97 -40 -126 -5 -138 27
-11 167 -8 185 3 10 7 12 28 7 95 -3 47 -5 101 -6 119 0 30 -30 74 -47 71 -5
-1 -18 -4 -30 -6z"/>
</g>
</svg>
