<?xml version="1.0" encoding="utf-8"?>
<!-- Generator: Adobe Illustrator 16.0.0, SVG Export Plug-In . SVG Version: 6.00 Build 0)  -->
<!DOCTYPE svg PUBLIC "-//W3C//DTD SVG 1.1//EN" "http://www.w3.org/Graphics/SVG/1.1/DTD/svg11.dtd">
<svg version="1.1" id="Layer_1" xmlns="http://www.w3.org/2000/svg" xmlns:xlink="http://www.w3.org/1999/xlink" x="0px" y="0px"
	 width="300px" height="300px" viewBox="0 0 300 300" enable-background="new 0 0 300 300" xml:space="preserve">
<g>
	<defs>
		<rect id="SVGID_1_" width="300" height="300"/>
	</defs>
	<clipPath id="SVGID_2_">
		<use xlink:href="#SVGID_1_"  overflow="visible"/>
	</clipPath>
	<path clip-path="url(#SVGID_2_)" fill="#680D00" d="M43.471,219.984c2.155-1.078,3.493-3.122,3.493-5.723
		c0-4.163-3.196-6.801-7.656-6.801H27.78c-1.535,0-2.78,1.244-2.78,2.78v20.564c0,1.535,1.245,2.78,2.78,2.78h12.754
		c4.349,0,7.544-2.75,7.544-7.023C48.078,223.292,46.22,220.95,43.471,219.984 M33.622,214.559h2.639
		c1.04,0,1.709,0.632,1.709,1.523c0,0.967-0.669,1.635-1.709,1.635l-2.639,0.038V214.559z M37.041,226.524h-3.419v-3.307h3.419
		c1.004,0,1.673,0.743,1.673,1.709C38.714,225.855,38.045,226.524,37.041,226.524"/>
	<path clip-path="url(#SVGID_2_)" fill="#680D00" d="M69.195,207.461h-3.434c-1.535,0-2.78,1.244-2.78,2.78v13.608
		c0,1.077-0.966,1.895-2.118,1.895c-1.189,0-2.155-0.817-2.155-1.895v-13.608c0-1.536-1.244-2.78-2.781-2.78h-3.395
		c-1.535,0-2.78,1.244-2.78,2.78v14.128c0,5.5,4.756,9.589,11.149,9.589c6.355,0,11.074-4.089,11.074-9.589v-14.128
		C71.975,208.705,70.73,207.461,69.195,207.461"/>
	<path clip-path="url(#SVGID_2_)" fill="#680D00" d="M94.789,222.14c2.342-1.449,3.68-3.679,3.68-6.578
		c0-4.979-3.865-8.101-9.923-8.101H77.538c-1.535,0-2.78,1.244-2.78,2.78v20.564c0,1.535,1.245,2.78,2.78,2.78h3.434
		c1.535,0,2.78-1.245,2.78-2.78v-4.615h3.902c1.152,0,1.858,1.04,1.858,2.229v2.386c0,1.535,1.245,2.78,2.78,2.78h3.434
		c1.535,0,2.78-1.245,2.78-2.78v-2.349C98.506,225.002,97.131,223.181,94.789,222.14 M87.543,218.98h-3.791v-3.604h3.791
		c1.077,0,1.783,0.668,1.783,1.783C89.326,218.274,88.62,218.98,87.543,218.98"/>
	<path clip-path="url(#SVGID_2_)" fill="#680D00" d="M112.399,207.052c-6.392,0-11.111,4.125-11.111,9.625v14.129
		c0,1.535,1.244,2.78,2.78,2.78h3.395c1.536,0,2.781-1.245,2.781-2.78V217.16c0-1.041,1.003-1.858,2.155-1.858
		s2.119,0.817,2.119,1.858v13.646c0,1.535,1.244,2.78,2.78,2.78h3.433c1.535,0,2.78-1.245,2.78-2.78v-14.129
		C123.511,211.177,118.792,207.052,112.399,207.052"/>
	<path clip-path="url(#SVGID_2_)" fill="#680D00" d="M133.064,207.461h-3.434c-1.535,0-2.78,1.244-2.78,2.78v20.564
		c0,1.535,1.245,2.78,2.78,2.78h3.434c1.535,0,2.78-1.245,2.78-2.78v-20.564C135.845,208.705,134.6,207.461,133.064,207.461"/>
	<path clip-path="url(#SVGID_2_)" fill="#680D00" d="M150.295,207.052c-6.392,0-11.112,4.125-11.112,9.625v14.129
		c0,1.535,1.245,2.78,2.78,2.78h3.395c1.537,0,2.781-1.245,2.781-2.78V217.16c0-1.041,1.004-1.858,2.156-1.858
		c1.151,0,2.118,0.817,2.118,1.858v13.646c0,1.535,1.245,2.78,2.78,2.78h3.433c1.536,0,2.78-1.245,2.78-2.78v-14.129
		C161.406,211.177,156.687,207.052,150.295,207.052"/>
	<path clip-path="url(#SVGID_2_)" fill="#680D00" d="M189.545,218.312h-8.837c-1.426,0-2.582,1.156-2.582,2.583
		s1.156,2.583,2.582,2.583h1.469c-0.335,1.598-2.045,2.676-4.051,2.676c-2.788,0-4.795-2.378-4.795-5.649
		c0-3.307,2.007-5.686,4.795-5.686c1.248,0,2.282,0.476,3.122,1.237c0.463,0.419,1.084,0.621,1.709,0.621h6.771
		c0.771,0,1.316-0.77,1.049-1.494c-1.759-4.763-6.887-8.131-12.689-8.131c-8.064,0-13.898,5.648-13.898,13.489
		c0,7.805,5.834,13.416,13.898,13.416s13.676-5.574,13.676-13.416v-0.022C191.763,219.298,190.766,218.312,189.545,218.312"/>
	<path clip-path="url(#SVGID_2_)" fill="#680D00" d="M225.354,207.461h-4.93c-1.243,0-2.335,0.824-2.674,2.02l-4.258,14.964
		l-4.291-14.97c-0.342-1.192-1.433-2.014-2.673-2.014h-4.931c-1.146,0-1.95,1.128-1.578,2.211l7.587,22.038
		c0.387,1.123,1.442,1.876,2.629,1.876h6.511c1.188,0,2.245-0.755,2.63-1.879l7.556-22.037
		C227.304,208.587,226.499,207.461,225.354,207.461"/>
	<path clip-path="url(#SVGID_2_)" fill="#680D00" d="M238.845,207.052c-6.354,0-11.075,4.125-11.075,9.625v14.129
		c0,1.535,1.245,2.78,2.78,2.78h3.396c1.536,0,2.78-1.245,2.78-2.78v-3.054H241v3.054c0,1.535,1.245,2.78,2.78,2.78h3.433
		c1.536,0,2.78-1.245,2.78-2.78v-14.129C249.993,211.177,245.236,207.052,238.845,207.052 M241,220.95h-4.274v-3.79
		c0-1.041,1.003-1.858,2.156-1.858c1.151,0,2.118,0.817,2.118,1.858V220.95z"/>
	<path clip-path="url(#SVGID_2_)" fill="#680D00" d="M263.888,207.052c-6.392,0-11.111,4.125-11.111,9.625v14.129
		c0,1.535,1.244,2.78,2.78,2.78h3.396c1.535,0,2.78-1.245,2.78-2.78V217.16c0-1.041,1.004-1.858,2.155-1.858
		c1.152,0,2.119,0.817,2.119,1.858v13.646c0,1.535,1.244,2.78,2.78,2.78h3.433c1.535,0,2.78-1.245,2.78-2.78v-14.129
		C275,211.177,270.28,207.052,263.888,207.052"/>
	<path clip-path="url(#SVGID_2_)" fill="#680D00" d="M215.923,247.438c0-0.479,0.48-0.833,1.212-0.833
		c0.772,0,1.341,0.37,1.595,0.984c0.224,0.537,0.781,0.859,1.363,0.859h3.291c0.723,0,1.265-0.668,1.111-1.373
		c-0.659-3.041-3.57-5.143-7.233-5.143c-4.369,0-7.551,2.5-7.551,5.96c0,6.667,9.318,4.798,9.318,6.944
		c0,0.48-0.606,0.859-1.541,0.859c-0.877,0-1.569-0.371-1.875-1.016c-0.248-0.523-0.778-0.854-1.357-0.854h-3.673
		c-0.732,0-1.272,0.685-1.106,1.397c0.735,3.146,3.758,4.992,7.634,4.992c4.696,0,8.132-2.197,8.132-5.96
		C225.242,247.994,215.923,249.889,215.923,247.438"/>
	<path clip-path="url(#SVGID_2_)" fill="#680D00" d="M78.98,242.211h-2.333c-1.043,0-1.89,0.846-1.89,1.89v13.975
		c0,1.044,0.847,1.89,1.89,1.89h2.333c1.043,0,1.89-0.846,1.89-1.89v-13.975C80.871,243.057,80.023,242.211,78.98,242.211"/>
	<path clip-path="url(#SVGID_2_)" fill="#680D00" d="M90.312,241.934c-4.344,0-7.551,2.803-7.551,6.541v9.601
		c0,1.044,0.846,1.89,1.889,1.89h2.308c1.043,0,1.889-0.846,1.889-1.89v-9.272c0-0.707,0.682-1.263,1.465-1.263
		s1.439,0.556,1.439,1.263v9.272c0,1.044,0.846,1.89,1.89,1.89h2.333c1.043,0,1.889-0.846,1.889-1.89v-9.601
		C97.862,244.736,94.655,241.934,90.312,241.934"/>
	<path clip-path="url(#SVGID_2_)" fill="#680D00" d="M107.33,242.211h-5.688c-1.043,0-1.888,0.846-1.888,1.89v13.975
		c0,1.044,0.845,1.89,1.888,1.89h5.688c5.278,0,9.141-3.763,9.141-8.864C116.471,245.974,112.608,242.211,107.33,242.211
		 M107.279,254.586h-1.414v-6.996h1.414c1.667,0,2.98,1.49,2.98,3.485S108.946,254.586,107.279,254.586"/>
	<path clip-path="url(#SVGID_2_)" fill="#680D00" d="M131.567,242.211h-2.333c-1.043,0-1.889,0.846-1.889,1.89v9.248
		c0,0.732-0.657,1.287-1.439,1.287c-0.809,0-1.465-0.555-1.465-1.287v-9.248c0-1.044-0.846-1.89-1.89-1.89h-2.307
		c-1.043,0-1.89,0.846-1.89,1.89v9.602c0,3.737,3.233,6.516,7.576,6.516c4.319,0,7.527-2.778,7.527-6.516v-9.602
		C133.458,243.057,132.611,242.211,131.567,242.211"/>
	<path clip-path="url(#SVGID_2_)" fill="#680D00" d="M141.831,247.438c0-0.479,0.479-0.833,1.212-0.833
		c0.772,0,1.341,0.37,1.595,0.984c0.222,0.537,0.781,0.859,1.363,0.859h3.291c0.722,0,1.265-0.668,1.111-1.373
		c-0.659-3.041-3.57-5.143-7.234-5.143c-4.368,0-7.551,2.5-7.551,5.96c0,6.667,9.319,4.798,9.319,6.944
		c0,0.48-0.606,0.859-1.541,0.859c-0.877,0-1.569-0.371-1.875-1.016c-0.248-0.523-0.779-0.854-1.358-0.854h-3.673
		c-0.731,0-1.271,0.685-1.105,1.397c0.735,3.146,3.757,4.992,7.633,4.992c4.697,0,8.131-2.197,8.131-5.96
		C151.149,247.994,141.831,249.889,141.831,247.438"/>
	<path clip-path="url(#SVGID_2_)" fill="#680D00" d="M164.924,242.211H153.93c-1.044,0-1.89,0.846-1.89,1.89v1.601
		c0,1.043,0.846,1.889,1.89,1.889h2.454v10.485c0,1.044,0.846,1.89,1.89,1.89h2.308c1.043,0,1.889-0.846,1.889-1.89V247.59h2.454
		c1.044,0,1.89-0.846,1.89-1.889v-1.601C166.813,243.057,165.968,242.211,164.924,242.211"/>
	<path clip-path="url(#SVGID_2_)" fill="#680D00" d="M182.494,252.186c1.592-0.983,2.501-2.5,2.501-4.469
		c0-3.384-2.627-5.506-6.743-5.506h-7.48c-1.043,0-1.89,0.846-1.89,1.89v13.975c0,1.044,0.847,1.89,1.89,1.89h2.333
		c1.043,0,1.89-0.846,1.89-1.89v-3.136h2.651c0.783,0,1.263,0.707,1.263,1.515v1.621c0,1.044,0.846,1.89,1.89,1.89h2.333
		c1.043,0,1.889-0.846,1.889-1.89v-1.597C185.02,254.131,184.086,252.894,182.494,252.186 M177.57,250.04h-2.576v-2.45h2.576
		c0.732,0,1.212,0.455,1.212,1.213C178.782,249.56,178.303,250.04,177.57,250.04"/>
	<path clip-path="url(#SVGID_2_)" fill="#680D00" d="M191.116,242.211h-2.333c-1.043,0-1.889,0.846-1.889,1.89v13.975
		c0,1.044,0.846,1.89,1.889,1.89h2.333c1.044,0,1.89-0.846,1.89-1.89v-13.975C193.006,243.057,192.16,242.211,191.116,242.211"/>
	<path clip-path="url(#SVGID_2_)" fill="#680D00" d="M206.241,242.211h-9.455c-1.044,0-1.89,0.846-1.89,1.89v13.975
		c0,1.044,0.846,1.89,1.89,1.89h9.455c1.043,0,1.889-0.846,1.889-1.89v-1.297c0-1.044-0.846-1.89-1.889-1.89h-5.233v-1.363h4.374
		c1.044,0,1.89-0.847,1.89-1.89v-1.096c0-1.043-0.846-1.889-1.89-1.889h-4.374v-1.364h5.233c1.043,0,1.889-0.847,1.889-1.89v-1.297
		C208.13,243.057,207.284,242.211,206.241,242.211"/>
	<path clip-path="url(#SVGID_2_)" fill="#680D00" d="M134.063,145.846c-0.556-1.442-1.941-2.395-3.487-2.395
		c-0.715,0-1.319,0.541-1.391,1.252c-0.235,2.325-0.425,4.654-0.569,6.985c-0.049,0.8,0.593,1.478,1.394,1.478h4.694
		c1.048,0,1.771-1.053,1.394-2.032L134.063,145.846z"/>
	<path clip-path="url(#SVGID_2_)" fill="#680D00" d="M131.419,135.061L131.419,135.061c12.288-1.88,24.79-1.88,37.079,0
		c0.501,0.077,0.936-0.358,0.854-0.859c-0.647-4.015-1.425-8.007-2.346-11.966c-0.813-3.497-3.724-6.031-7.279-6.368H140.19
		c-3.557,0.337-6.467,2.871-7.28,6.368c-0.921,3.958-1.699,7.951-2.346,11.966C130.483,134.703,130.917,135.138,131.419,135.061"/>
	<path clip-path="url(#SVGID_2_)" fill="#680D00" d="M159.688,143.451h-19.461c-0.928,0-1.523,0.936-1.188,1.801
		c0.003,0.008,0.005,0.015,0.009,0.023l1.975,5.129c0.003,0.01,0.007,0.019,0.011,0.028c0.608,1.61,2.076,2.732,3.798,2.732h10.252
		c1.721,0,3.188-1.122,3.798-2.732c0.003-0.009,0.006-0.018,0.01-0.026l1.975-5.13c0.003-0.009,0.007-0.016,0.01-0.024
		C161.213,144.388,160.616,143.451,159.688,143.451"/>
	<path clip-path="url(#SVGID_2_)" fill="#680D00" d="M154.003,40.278c-1.638-1.225-3.977-0.036-3.98,2.01
		c-0.012,7.94-0.079,16.394-0.425,24.17c-0.709,15.832-0.916,28.856-5.882,29.038c-3.312,0-4.922-17.317-5.227-31.351
		c-0.044-2.055-2.399-3.183-4.032-1.933c-22.796,17.451-37.758,44.619-38.625,75.336c-0.882,31.215,23.477,57.316,54.702,56.991
		c29.65-0.31,53.591-24.441,53.591-54.164h0.066C204.191,99.405,184.456,63.076,154.003,40.278 M179.125,165.283
		c0,2.063-1.673,3.736-3.736,3.736h-2.241c-2.063,0-3.736-1.673-3.736-3.736v-2.989c0-0.413-0.334-0.747-0.747-0.747h-18.706
		h-18.706c-0.412,0-0.747,0.334-0.747,0.747v2.989c0,2.063-1.673,3.736-3.736,3.736h-2.241c-2.064,0-3.736-1.673-3.736-3.736v-2.562
		c0-14.198,1.623-28.35,4.84-42.18c1.567-6.742,7.353-11.671,14.26-12.148h20.133c6.905,0.477,12.691,5.406,14.26,12.148
		c3.216,13.83,4.84,27.981,4.84,42.18V165.283z"/>
	<path clip-path="url(#SVGID_2_)" fill="#680D00" d="M169.352,143.451L169.352,143.451c-1.547,0-2.933,0.952-3.488,2.395
		l-2.035,5.287c-0.377,0.979,0.346,2.032,1.395,2.032h4.693c0.802,0,1.443-0.678,1.395-1.478c-0.145-2.331-0.334-4.66-0.569-6.984
		C170.669,143.992,170.065,143.451,169.352,143.451"/>
</g>
</svg>
