<svg version="1.1" id="Layer_1" xmlns="http://www.w3.org/2000/svg" xmlns:xlink="http://www.w3.org/1999/xlink" x="0px" y="0px"
	 viewBox="0 0 512 512" width="400px" style="enable-background:new 0 0 512 512;" xml:space="preserve">
	 <g>
	 	<g>
	 		<!-- left cloud -->
	 		<path d="M196.538,146.584c0-14.209-11.56-25.769-25.769-25.769h-59.711c-14.209,0-25.77,11.56-25.77,25.769
	 			c0,3.116,0.555,6.104,1.574,8.872H45.725c-14.209,0-25.769,11.56-25.769,25.769c0,14.209,11.561,25.769,25.769,25.769h99.972
	 			c14.209,0,25.769-11.56,25.769-25.769c0-3.115-0.557-6.104-1.573-8.871h0.875C184.978,172.354,196.538,160.794,196.538,146.584z
	 			 M145.698,155.456c-4.666,0-8.449,3.783-8.449,8.449c0,4.666,3.783,8.449,8.449,8.449c4.892,0,8.871,3.979,8.871,8.871
	 			s-3.979,8.871-8.871,8.871H45.726c-4.892,0-8.871-3.979-8.871-8.871s3.979-8.871,8.869-8.871h65.332
	 			c4.666,0,8.449-3.783,8.449-8.449c0-4.666-3.783-8.449-8.449-8.449c-4.892,0-8.872-3.98-8.872-8.872s3.98-8.871,8.872-8.871
	 			h59.711c4.892,0,8.871,3.979,8.871,8.871s-3.979,8.872-8.871,8.872H145.698z"
	 			/>
	 	</g>
	 </g>
</svg>
