<?xml version="1.0" encoding="utf-8"?>
<!-- Generator: Adobe Illustrator 16.0.0, SVG Export Plug-In . SVG Version: 6.00 Build 0)  -->
<!DOCTYPE svg PUBLIC "-//W3C//DTD SVG 1.1//EN" "http://www.w3.org/Graphics/SVG/1.1/DTD/svg11.dtd">
<svg version="1.1" id="Layer_1" xmlns="http://www.w3.org/2000/svg" xmlns:xlink="http://www.w3.org/1999/xlink" x="0px" y="0px"
	 width="300px" height="300px" viewBox="0 0 300 300" enable-background="new 0 0 300 300" xml:space="preserve" >
<g>
	<path fill="#ff0100" d="M129.404,187.068c-0.718-1.864-2.509-3.094-4.506-3.094h-0.001c-0.923,0-1.704,0.699-1.797,1.618
		c-0.303,3.003-0.549,6.013-0.735,9.025c-0.064,1.034,0.766,1.909,1.802,1.909h6.065c1.357,0,2.29-1.36,1.803-2.625L129.404,187.068
		z"/>
	<path fill="#ff0100" d="M125.986,173.131L125.986,173.131c15.881-2.429,32.038-2.429,47.919,0c0.647,0.1,1.209-0.463,1.104-1.11
		c-0.836-5.188-1.842-10.349-3.031-15.464c-1.051-4.52-4.812-7.795-9.407-8.231h-25.25c-4.596,0.436-8.356,3.711-9.407,8.23
		c-1.191,5.116-2.196,10.276-3.032,15.465C124.777,172.668,125.339,173.23,125.986,173.131"/>
	<path fill="#ff0100" d="M162.521,183.975h-25.15c-1.199,0-1.969,1.209-1.536,2.326c0.004,0.011,0.008,0.021,0.012,0.031
		l2.552,6.628c0.005,0.012,0.01,0.024,0.015,0.037c0.786,2.081,2.683,3.53,4.908,3.53h13.249c2.226,0,4.121-1.45,4.908-3.531
		c0.005-0.011,0.009-0.022,0.014-0.034l2.552-6.629c0.004-0.011,0.008-0.021,0.012-0.031
		C164.49,185.184,163.72,183.975,162.521,183.975"/>
	<path fill="#ff0100" d="M155.173,50.641c-2.117-1.584-5.138-0.047-5.144,2.597c-0.016,10.263-0.102,21.187-0.551,31.236
		c-0.915,20.46-1.183,37.292-7.6,37.526c-4.279,0-6.36-22.377-6.754-40.514c-0.057-2.656-3.101-4.115-5.211-2.499
		c-29.461,22.552-48.796,57.663-49.918,97.358c-1.138,40.341,30.34,74.071,70.695,73.651c38.318-0.399,69.257-31.586,69.257-69.997
		h0.086C220.033,127.053,194.528,80.104,155.173,50.641 M187.639,212.188c0,2.667-2.161,4.829-4.828,4.829h-2.896
		c-2.667,0-4.829-2.162-4.829-4.829v-3.862c0-0.534-0.433-0.966-0.966-0.966h-24.173h-24.175c-0.533,0-0.966,0.432-0.966,0.966
		v3.862c0,2.667-2.162,4.829-4.828,4.829h-2.896c-2.667,0-4.829-2.162-4.829-4.829v-3.31c0-18.349,2.099-36.638,6.255-54.51
		c2.027-8.714,9.504-15.083,18.429-15.699h26.019c8.925,0.616,16.402,6.985,18.429,15.699c4.156,17.872,6.255,36.161,6.255,54.51
		V212.188z"/>
	<path fill="#ff0100" d="M175.008,183.975L175.008,183.975c-1.998,0-3.79,1.229-4.507,3.094l-2.631,6.834
		c-0.487,1.265,0.447,2.625,1.803,2.625h6.065c1.036,0,1.865-0.875,1.802-1.909c-0.187-3.013-0.432-6.022-0.735-9.025
		C176.712,184.674,175.932,183.975,175.008,183.975"/>
</g>
</svg>
