<svg width="600" height="512" xmlns="http://www.w3.org/2000/svg">

 <g>
  <title>background</title>
  <rect fill="none" id="canvas_background" height="514" width="602" y="-1" x="-1"/>
 </g>
 <g>
  <title>Layer 1</title>
  <g id="svg_1">
   <g id="svg_2">
    <path id="svg_3" d="m331,348.222l-15.021,-18.776c-1.492,-1.864 -3.702,-3.01 -6.085,-3.156c-2.388,-0.143 -4.717,0.726 -6.423,2.395l-35.299,34.548c-3.335,3.264 -3.392,8.614 -0.128,11.948c1.653,1.693 3.844,2.54 6.037,2.54c2.131,0 4.265,-0.802 5.91,-2.411l28.625,-28.016l9.187,11.483c2.914,3.643 8.232,4.235 11.876,1.319c3.646,-2.912 4.236,-8.229 1.321,-11.874z"/>
   </g>
  </g>
  <g stroke="null" id="svg_4">
   <g stroke="null" id="svg_5">
    <path stroke="null" stroke-width="0" id="svg_6" d="m214.537996,202.081627c0,-12.277795 -12.411049,-22.266627 -27.666118,-22.266627l-64.106934,0c-15.255069,0 -27.667192,9.988832 -27.667192,22.266627c0,2.692491 0.595859,5.27438 1.689878,7.666169l-44.165513,0c-15.255069,0 -27.666118,9.988832 -27.666118,22.266627c0,12.277795 12.412123,22.266627 27.666118,22.266627l107.331955,0c15.255069,0 27.666118,-9.988832 27.666118,-22.266627c0,-2.691627 -0.598006,-5.27438 -1.688805,-7.665305l0.939418,0c15.256143,0 27.667192,-9.988832 27.667192,-22.267491zm-54.582849,7.666169c-5.009512,0 -9.071017,3.268837 -9.071017,7.300661c0,4.031824 4.061505,7.300661 9.071017,7.300661c5.25215,0 9.524084,3.438197 9.524084,7.665305s-4.271935,7.665305 -9.524084,7.665305l-107.331955,0c-5.25215,0 -9.524084,-3.438197 -9.524084,-7.665305s4.271935,-7.665305 9.521937,-7.665305l70.141753,0c5.009512,0 9.071017,-3.268837 9.071017,-7.300661c0,-4.031824 -4.061505,-7.300661 -9.071017,-7.300661c-5.25215,0 -9.525158,-3.439061 -9.525158,-7.666169s4.273008,-7.665305 9.525158,-7.665305l64.106934,0c5.25215,0 9.524084,3.438197 9.524084,7.665305s-4.271935,7.666169 -9.524084,7.666169l-26.914584,0z"/>
   </g>
  </g>
  <g stroke="null" id="svg_7">
   <g stroke="null" id="svg_8">
    <path stroke="null" id="svg_9" d="m549.285001,133.837c-25.396235,0 -46.057002,20.660767 -46.057002,46.056294c0,25.396235 20.661475,46.057002 46.057002,46.057002c25.395527,0 46.057002,-20.660767 46.057002,-46.057002c0,-25.395527 -20.660767,-46.056294 -46.057002,-46.056294zm0,80.150383c-18.799571,0 -34.094089,-15.29381 -34.094089,-34.093381c0,-18.798863 15.294518,-34.092673 34.093381,-34.092673c18.798863,0 34.094089,15.29381 34.094089,34.092673c0.000708,18.798863 -15.293102,34.093381 -34.093381,34.093381z"/>
   </g>
  </g>
  <g stroke="null" id="svg_10">
   <g stroke="null" id="svg_11">
    <path stroke="null" id="svg_12" d="m588.148334,492.097849l-0.199389,0l-125.323359,-135.218458c-3.029309,-3.268978 -8.371992,-4.1482 -12.589471,-2.073598l-12.595301,6.194698l-56.053869,-38.359554l10.854439,0c16.567916,0 30.047057,-11.603517 30.047057,-25.864772c0,-3.126456 -0.649471,-6.126448 -1.834143,-8.903624l48.426961,0c16.567916,0 30.047057,-11.602513 30.047057,-25.864772c0,-14.261255 -13.479141,-25.863768 -30.047057,-25.863768l-117.030656,0c-16.567916,0 -30.047057,11.603517 -30.047057,25.864772c0,3.126456 0.649471,6.126448 1.834143,8.903624l-17.829545,0l-42.67384,-29.200996c-4.243131,-2.904643 -10.413686,-2.310466 -13.810289,1.325858l-26.025469,27.874134l-84.9524,0c-16.567916,0 -30.047057,11.602513 -30.047057,25.863768c0,14.261255 13.479141,25.864772 30.047057,25.864772l36.646705,0l-33.005238,35.348522l-5.36717,-1.064902c-3.873504,-0.770824 -7.900922,0.539979 -10.218961,3.320166l-109.913297,131.854131l-5.63652,0c-5.440629,0 -9.851666,3.796912 -9.851666,8.480072s4.411037,8.480072 9.851666,8.480072l577.296668,0c5.440629,0 9.851666,-3.796912 9.851666,-8.480072s-4.411037,-8.480072 -9.851666,-8.480072zm-329.602301,-231.860568l15.600123,10.675115l-25.566059,0l9.965936,-10.675115zm-120.197555,45.443511c-5.704148,0 -10.343725,-3.994637 -10.343725,-8.904628s4.639576,-8.903624 10.343725,-8.903624l213.503291,0c5.440629,0 9.851666,-3.796912 9.851666,-8.480072s-4.411037,-8.480072 -9.851666,-8.480072c-5.704148,0 -10.343725,-3.994637 -10.343725,-8.904628s4.639576,-8.903624 10.343725,-8.903624l117.030656,0c5.704148,0 10.343725,3.994637 10.343725,8.904628s-4.639576,8.903624 -10.343725,8.903624l-76.639875,0c-5.440629,0 -9.851666,3.796912 -9.851666,8.480072s4.411037,8.480072 9.851666,8.480072c5.704148,0 10.343725,3.993633 10.343725,8.903624s-4.639576,8.904628 -10.343725,8.904628l-253.894072,0zm11.603021,186.417057l-22.331531,0l0,-9.422525l22.331531,0l0,9.422525zm71.810238,0l-22.331531,0l0,-15.274969l11.165766,-14.016358l11.165766,14.016358l0,15.274969zm42.034863,0l-22.331531,0l0,-15.274969l11.165766,-14.016358l11.165766,14.016358l0,15.274969zm42.034863,0l-22.331531,0l0,-15.274969l11.165766,-14.016358l11.165766,14.016358l0,15.274969zm136.613889,0l-22.331531,0l0,-9.422525l22.331531,0l0,9.422525zm19.701,0.001004l0,-17.902597c0,-4.68316 -4.411037,-8.480072 -9.851666,-8.480072l-42.034863,0c-5.440629,0 -9.851666,3.796912 -9.851666,8.480072l0,17.902597l-74.874527,0l0,-17.902597c0,-1.712274 -0.601664,-3.384401 -1.725703,-4.795572l-21.017432,-26.38267c-1.836475,-2.306451 -4.876277,-3.6845 -8.125963,-3.6845s-6.288322,1.378049 -8.125963,3.6845l-12.891469,16.184301l-12.891469,-16.184301c-1.836475,-2.306451 -4.876277,-3.6845 -8.125963,-3.6845c-3.249686,0 -6.288322,1.378049 -8.125963,3.6845l-12.891469,16.184301l-12.891469,-16.184301c-1.836475,-2.306451 -4.876277,-3.6845 -8.125963,-3.6845s-6.288322,1.378049 -8.125963,3.6845l-21.017432,26.38267c-1.124039,1.412174 -1.725703,3.083298 -1.725703,4.795572l0,17.902597l-10.070877,0l0,-17.902597c0,-4.68316 -4.411037,-8.480072 -9.851666,-8.480072l-42.034863,0c-5.440629,0 -9.851666,3.796912 -9.851666,8.480072l0,17.902597l-67.176492,0l98.502668,-117.944163l53.573754,19.222434c1.218486,0.434592 2.497605,0.644361 3.765064,0.644361c2.700492,0 5.347348,-0.956505 7.252617,-2.739036l20.141754,-18.845051c3.683443,-3.446629 3.424588,-8.811286 -0.57951,-11.982907c-4.005264,-3.170618 -10.236451,-2.946797 -13.921061,0.498828l-15.483521,14.487083l-32.281143,-11.498131l38.563635,-41.299326l149.451721,0l69.498029,47.561271l-15.743543,8.046483c-4.679221,2.391764 -6.218361,7.593825 -3.442078,11.621583c1.841139,2.669782 5.117643,4.152214 8.480432,4.152214c1.710545,0 3.443244,-0.383405 5.020863,-1.189358l38.943756,-19.696169l110.258437,118.961892l-100.595666,0l0,-0.002007z"/>
   </g>
  </g>
  <g id="svg_16"/>
  <g id="svg_17"/>
  <g id="svg_18"/>
  <g id="svg_19"/>
  <g id="svg_20"/>
  <g id="svg_21"/>
  <g id="svg_22"/>
  <g id="svg_23"/>
  <g id="svg_24"/>
  <g id="svg_25"/>
  <g id="svg_26"/>
  <g id="svg_27"/>
  <g id="svg_28"/>
  <g id="svg_29"/>
  <g id="svg_30"/>
  <g stroke="null" transform="rotate(180 76.2469940185547,347.52642822265625) " id="svg_33">
   <g stroke="null" id="svg_32">
    <path stroke="null" stroke-width="0" id="svg_31" d="m115.537993,340.407052c0,-5.840446 -5.144397,-10.592051 -11.467644,-10.592051l-26.572412,0c-6.323247,0 -11.468089,4.751605 -11.468089,10.592051c0,1.280796 0.246984,2.508979 0.700457,3.646733l-18.306665,0c-6.323247,0 -11.467644,4.751605 -11.467644,10.592051c0,5.840446 5.144842,10.592051 11.467644,10.592051l44.489242,0c6.323247,0 11.467644,-4.751605 11.467644,-10.592051c0,-1.280385 -0.247874,-2.508979 -0.700012,-3.646322l0.38939,0c6.323692,0 11.468089,-4.751605 11.468089,-10.592462zm-22.624665,3.646733c-2.076449,0 -3.759949,1.554959 -3.759949,3.472864c0,1.917906 1.683499,3.472864 3.759949,3.472864c2.177023,0 3.947746,1.635522 3.947746,3.646322s-1.770723,3.646322 -3.947746,3.646322l-44.489242,0c-2.177023,0 -3.947746,-1.635522 -3.947746,-3.646322s1.770723,-3.646322 3.946856,-3.646322l29.073852,0c2.076449,0 3.759949,-1.554959 3.759949,-3.472864c0,-1.917906 -1.683499,-3.472864 -3.759949,-3.472864c-2.177023,0 -3.948191,-1.635933 -3.948191,-3.646733s1.771168,-3.646322 3.948191,-3.646322l26.572412,0c2.177023,0 3.947746,1.635522 3.947746,3.646322s-1.770723,3.646733 -3.947746,3.646733l-11.156132,0z"/>
   </g>
  </g>
  <rect stroke="#000000" transform="rotate(0.2301023006439209 523.0120849609406,324.5000610351711) " rx="16" id="svg_34" height="30.000049" width="84" y="309.500024" x="481.012048" stroke-width="11" fill="none"/>
 </g>
</svg>