<?xml version="1.0" encoding="iso-8859-1"?>
<!-- Generator: Adobe Illustrator 19.0.0, SVG Export Plug-In . SVG Version: 6.00 Build 0)  -->
<svg version="1.1" id="Layer_1" xmlns="http://www.w3.org/2000/svg" xmlns:xlink="http://www.w3.org/1999/xlink" x="0px" y="0px"
	 viewBox="0 0 512 512" style="enable-background:new 0 0 512 512;" xml:space="preserve">
<g>
	<g>
		<!-- middle baby peak -->
		<path d="M293,328.222l-15.021-18.776c-1.492-1.864-3.702-3.01-6.085-3.156c-2.388-0.143-4.717,0.726-6.423,2.395l-35.299,34.548
			c-3.335,3.264-3.392,8.614-0.128,11.948c1.653,1.693,3.844,2.54,6.037,2.54c2.131,0,4.265-0.802,5.91-2.411l28.625-28.016
			l9.187,11.483c2.914,3.643,8.232,4.235,11.876,1.319C295.325,337.184,295.915,331.867,293,328.222z"
			/>
	</g>
</g>
<g>
	<g>
		<path  stroke="black" stroke-width="1" d="M503.551,432.16h-0.171l-107.48-134.723c-2.598-3.257-7.18-4.133-10.797-2.066l-10.802,6.172l-48.073-38.219h9.309
			c14.209,0,25.769-11.561,25.769-25.77c0-3.115-0.557-6.104-1.573-8.871h41.532c14.209,0,25.769-11.56,25.769-25.77
			c0-14.209-11.56-25.769-25.769-25.769H300.897c-14.209,0-25.769,11.561-25.769,25.77c0,3.115,0.557,6.104,1.573,8.871H261.41
			l-36.598-29.094c-3.639-2.894-8.931-2.302-11.844,1.321l-22.32,27.772h-72.857c-14.209,0-25.769,11.56-25.769,25.769
			c0,14.209,11.56,25.77,25.769,25.77h31.429l-28.306,35.219l-4.603-1.061c-3.322-0.768-6.776,0.538-8.764,3.308L13.283,432.16
			H8.449c-4.666,0-8.449,3.783-8.449,8.449s3.783,8.449,8.449,8.449h495.102c4.666,0,8.449-3.783,8.449-8.449
			S508.217,432.16,503.551,432.16z M220.877,201.149l13.379,10.636H212.33L220.877,201.149z M117.793,246.426
			c-4.892,0-8.871-3.98-8.871-8.872s3.979-8.871,8.871-8.871h183.105c4.666,0,8.449-3.783,8.449-8.449s-3.783-8.449-8.449-8.449
			c-4.892,0-8.871-3.98-8.871-8.872s3.979-8.871,8.871-8.871h100.368c4.892,0,8.871,3.98,8.871,8.872s-3.979,8.871-8.871,8.871
			h-65.728c-4.666,0-8.449,3.783-8.449,8.449s3.783,8.449,8.449,8.449c4.892,0,8.871,3.979,8.871,8.871s-3.979,8.872-8.871,8.872
			H117.793z M127.744,432.16h-19.152v-9.388h19.152V432.16z M189.33,432.16h-19.152v-15.219l9.576-13.965l9.576,13.965V432.16z
			 M225.38,432.16h-19.152v-15.219l9.576-13.965l9.576,13.965V432.16z M261.43,432.16h-19.152v-15.219l9.576-13.965l9.576,13.965
			V432.16z M378.593,432.16h-19.152v-9.388h19.152V432.16z M395.489,432.161v-17.837c0-4.666-3.783-8.449-8.449-8.449h-36.05
			c-4.666,0-8.449,3.783-8.449,8.449v17.837h-64.214v-17.837c0-1.706-0.516-3.372-1.48-4.778l-18.025-26.286
			c-1.575-2.298-4.182-3.671-6.969-3.671s-5.393,1.373-6.969,3.671l-11.056,16.125l-11.056-16.125
			c-1.575-2.298-4.182-3.671-6.969-3.671c-2.787,0-5.393,1.373-6.969,3.671l-11.056,16.125l-11.056-16.125
			c-1.575-2.298-4.182-3.671-6.969-3.671s-5.393,1.373-6.969,3.671l-18.025,26.286c-0.964,1.407-1.48,3.072-1.48,4.778v17.837
			h-8.637v-17.837c0-4.666-3.783-8.449-8.449-8.449h-36.05c-4.666,0-8.449,3.783-8.449,8.449v17.837H34.082l84.478-117.512
			l45.946,19.152c1.045,0.433,2.142,0.642,3.229,0.642c2.316,0,4.586-0.953,6.22-2.729l17.274-18.776
			c3.159-3.434,2.937-8.779-0.497-11.939c-3.435-3.159-8.779-2.936-11.939,0.497l-13.279,14.434l-27.685-11.456l33.073-41.148
			h128.173l59.603,47.387l-13.502,8.017c-4.013,2.383-5.333,7.566-2.952,11.579c1.579,2.66,4.389,4.137,7.273,4.137
			c1.467,0,2.953-0.382,4.306-1.185l33.399-19.624l94.56,118.526H395.489z"
			/>
	</g>
</g>
<g>
</g>
<g>
</g>
<g>
</g>
<g>
</g>
<g>
</g>
<g>
</g>
<g>
</g>
<g>
</g>
<g>
</g>
<g>
</g>
<g>
</g>
<g>
</g>
<g>
</g>
<g>
</g>
<g>
</g>
</svg>
